<svg xmlns="http://www.w3.org/2000/svg" xmlns:xlink="http://www.w3.org/1999/xlink" width="250" zoomAndPan="magnify" viewBox="0 0 187.5 112.499997" height="150" preserveAspectRatio="xMidYMid meet" version="1.0"><defs><g/><clipPath id="7fc9e001a5"><path d="M 61.292969 31 L 95 31 L 95 55 L 61.292969 55 Z M 61.292969 31 " clip-rule="nonzero"/></clipPath><clipPath id="1c50aaa0da"><path d="M 100.109375 30.699219 L 122.980469 30.699219 L 122.980469 59.777344 L 100.109375 59.777344 Z M 100.109375 30.699219 " clip-rule="nonzero"/></clipPath><clipPath id="886e961935"><path d="M 79 29.335938 L 109 29.335938 L 109 59 L 79 59 Z M 79 29.335938 " clip-rule="nonzero"/></clipPath></defs><g clip-path="url(#7fc9e001a5)"><path fill="#ffffff" d="M 72.730469 52.433594 L 72.730469 52.429688 L 77.652344 52.429688 C 78.242188 52.429688 78.789062 51.855469 78.867188 51.148438 C 78.945312 50.445312 78.527344 49.871094 77.9375 49.871094 L 73.015625 49.871094 L 73.015625 49.867188 L 68.6875 49.867188 C 68.097656 49.867188 67.757812 49.296875 67.757812 48.585938 C 67.757812 47.878906 68.386719 47.308594 68.976562 47.308594 L 73.304688 47.308594 L 73.304688 47.304688 L 78.222656 47.304688 C 78.8125 47.304688 79.359375 46.726562 79.441406 46.023438 C 79.519531 45.320312 79.101562 44.742188 78.511719 44.742188 L 73.589844 44.742188 L 73.589844 44.738281 L 62.234375 44.738281 C 61.640625 44.738281 61.300781 44.167969 61.300781 43.460938 C 61.300781 42.75 61.929688 42.179688 62.519531 42.179688 L 73.875 42.179688 L 73.875 42.175781 L 78.796875 42.175781 C 79.386719 42.175781 79.933594 41.601562 80.011719 40.894531 C 80.089844 40.191406 79.671875 39.617188 79.082031 39.617188 L 74.164062 39.617188 L 74.164062 39.613281 L 71.757812 39.613281 C 71.167969 39.613281 70.828125 39.039062 70.828125 38.332031 C 70.828125 37.625 71.453125 37.050781 72.042969 37.050781 L 79.371094 37.050781 C 79.960938 37.050781 80.507812 36.472656 80.585938 35.769531 C 80.664062 35.066406 80.246094 34.488281 79.65625 34.488281 L 74.734375 34.488281 L 74.734375 34.484375 L 66.855469 34.484375 C 66.265625 34.484375 65.925781 33.914062 65.925781 33.207031 C 65.925781 32.496094 66.550781 31.925781 67.140625 31.925781 L 79.941406 31.925781 C 79.960938 31.925781 79.976562 31.925781 79.996094 31.925781 L 94.921875 31.925781 L 89.527344 54.992188 L 77.421875 54.992188 C 77.402344 54.992188 77.382812 54.992188 77.363281 54.992188 L 63.75 54.992188 C 63.160156 54.992188 62.820312 54.421875 62.820312 53.714844 C 62.820312 53.003906 63.445312 52.433594 64.035156 52.433594 L 72.730469 52.433594 " fill-opacity="1" fill-rule="evenodd"/></g><g clip-path="url(#1c50aaa0da)"><path fill="#ffffff" d="M 122.980469 43.738281 L 109.945312 30.703125 L 104.480469 36.167969 L 110.683594 42.371094 L 100.109375 52.945312 L 106.941406 59.777344 L 122.980469 43.738281 " fill-opacity="1" fill-rule="evenodd"/></g><path fill="#000000" d="M 108.386719 55.785156 L 108.386719 56.550781 L 107.117188 57.820312 L 104.941406 55.644531 L 106.59375 53.992188 Z M 108.386719 52.199219 L 108.386719 52.960938 L 108.003906 52.582031 Z M 108.386719 34.039062 L 108.386719 34.582031 L 108.117188 34.308594 Z M 108.386719 56.550781 L 108.386719 55.785156 L 108.769531 56.167969 Z M 111.449219 52.722656 L 111.449219 53.484375 L 110.179688 54.757812 L 108.386719 52.960938 L 108.386719 52.199219 L 109.65625 50.929688 Z M 111.449219 34.339844 L 111.449219 35.324219 L 110.292969 36.484375 L 108.386719 34.582031 L 108.386719 34.039062 L 109.769531 32.660156 Z M 111.449219 49.136719 L 111.070312 49.515625 L 111.449219 49.898438 Z M 111.449219 35.324219 L 111.449219 34.339844 L 111.941406 34.832031 Z M 111.449219 53.484375 L 111.449219 52.722656 L 111.832031 53.105469 Z M 114.515625 46.070312 L 114.515625 46.835938 L 114.132812 46.453125 Z M 114.515625 49.660156 L 112.722656 47.867188 L 111.449219 49.136719 L 111.449219 49.898438 L 113.246094 51.691406 L 114.515625 50.421875 Z M 117.578125 46.59375 L 117.578125 47.359375 L 116.308594 48.628906 L 114.515625 46.835938 L 114.515625 46.070312 L 115.785156 44.800781 Z M 117.578125 43.007812 L 117.578125 43.773438 L 117.195312 43.390625 Z M 114.894531 50.039062 L 114.515625 49.660156 L 114.515625 50.421875 Z M 117.578125 43.773438 L 117.578125 43.007812 L 118.847656 41.738281 L 121.023438 43.914062 L 119.371094 45.566406 Z M 117.578125 47.359375 L 117.578125 46.59375 L 117.960938 46.976562 L 117.578125 47.359375 " fill-opacity="1" fill-rule="evenodd"/><g clip-path="url(#886e961935)"><path fill="#ffffff" d="M 108.863281 42.371094 L 95.828125 29.335938 L 79.789062 45.375 L 92.824219 58.410156 L 108.863281 42.371094 " fill-opacity="1" fill-rule="evenodd"/></g><path fill="#000000" d="M 85.191406 45.339844 L 85.191406 46.101562 L 83.921875 47.375 L 81.746094 45.199219 L 83.398438 43.546875 Z M 85.191406 41.753906 L 85.191406 42.515625 L 84.808594 42.132812 Z M 85.191406 46.101562 L 85.191406 45.339844 L 85.574219 45.722656 Z M 88.253906 42.277344 L 88.253906 43.039062 L 86.984375 44.308594 L 85.191406 42.515625 L 85.191406 41.753906 L 86.460938 40.484375 Z M 88.253906 38.6875 L 88.253906 39.453125 L 87.871094 39.070312 Z M 88.253906 43.039062 L 88.253906 42.277344 L 88.636719 42.65625 Z M 91.316406 53.785156 L 91.316406 54.769531 L 90.824219 54.277344 Z M 91.316406 39.210938 L 91.316406 39.976562 L 90.046875 41.246094 L 88.253906 39.453125 L 88.253906 38.6875 L 89.523438 37.417969 Z M 91.316406 35.625 L 90.9375 36.007812 L 91.316406 36.390625 Z M 91.316406 39.976562 L 91.316406 39.210938 L 91.699219 39.59375 Z M 94.269531 54.417969 L 94.269531 55.183594 L 93 56.453125 L 91.316406 54.769531 L 91.316406 53.785156 L 92.476562 52.625 Z M 94.269531 50.832031 L 94.269531 51.597656 L 93.890625 51.214844 Z M 94.269531 32.671875 L 94.269531 33.214844 L 94 32.945312 Z M 94.269531 36.039062 L 92.585938 34.355469 L 91.316406 35.625 L 91.316406 36.390625 L 93.109375 38.183594 L 94.269531 37.023438 Z M 94.269531 55.183594 L 94.269531 54.417969 L 94.652344 54.800781 Z M 97.335938 51.355469 L 97.335938 52.121094 L 96.0625 53.390625 L 94.269531 51.597656 L 94.269531 50.832031 L 95.539062 49.5625 Z M 97.335938 47.769531 L 97.335938 48.53125 L 96.953125 48.152344 Z M 97.335938 32.976562 L 97.335938 33.960938 L 96.175781 35.117188 L 94.269531 33.214844 L 94.269531 32.671875 L 95.652344 31.292969 Z M 94.761719 36.53125 L 94.269531 36.039062 L 94.269531 37.023438 Z M 97.335938 33.960938 L 97.335938 32.976562 L 97.828125 33.46875 Z M 97.335938 52.121094 L 97.335938 51.355469 L 97.714844 51.738281 Z M 100.398438 48.292969 L 100.398438 49.054688 L 99.128906 50.328125 L 97.335938 48.53125 L 97.335938 47.769531 L 98.605469 46.5 Z M 100.398438 44.707031 L 100.398438 45.46875 L 100.015625 45.085938 Z M 100.398438 49.054688 L 100.398438 48.292969 L 100.78125 48.675781 Z M 103.460938 45.230469 L 103.460938 45.992188 L 102.191406 47.261719 L 100.398438 45.46875 L 100.398438 44.707031 L 101.667969 43.4375 Z M 103.460938 41.640625 L 103.460938 42.40625 L 103.078125 42.023438 Z M 103.460938 42.40625 L 103.460938 41.640625 L 104.730469 40.371094 L 106.90625 42.546875 L 105.253906 44.199219 Z M 103.460938 45.992188 L 103.460938 45.230469 L 103.84375 45.609375 L 103.460938 45.992188 " fill-opacity="1" fill-rule="evenodd"/><g fill="#ffffff" fill-opacity="1"><g transform="translate(35.064876, 69.292192)"><g><path d="M 5.851562 -5.960938 L 0.128906 -5.960938 L 0.128906 -3.742188 L 1.382812 -3.742188 L 1.382812 -4.835938 L 2.113281 -4.835938 L 2.113281 -1.132812 L 1.414062 -1.132812 L 1.414062 0 L 4.589844 0 L 4.589844 -1.132812 L 3.878906 -1.132812 L 3.878906 -4.835938 L 4.597656 -4.835938 L 4.597656 -3.742188 L 5.851562 -3.742188 Z M 5.851562 -5.960938 "/></g></g></g><g fill="#ffffff" fill-opacity="1"><g transform="translate(41.341298, 69.292192)"><g><path d="M 0.214844 -5.960938 L 0.214844 -4.835938 L 0.75 -4.835938 L 0.75 -1.132812 L 0.214844 -1.132812 L 0.214844 0 L 3.042969 0 L 3.042969 -1.132812 L 2.515625 -1.132812 L 2.515625 -4.835938 L 3.042969 -4.835938 L 3.042969 -5.960938 Z M 0.214844 -5.960938 "/></g></g></g><g fill="#ffffff" fill-opacity="1"><g transform="translate(44.897391, 69.292192)"><g><path d="M 4.726562 -2.15625 C 4.648438 -2.074219 4.085938 -1.320312 3.367188 -1.320312 C 2.558594 -1.320312 2.125 -2.082031 2.125 -2.925781 C 2.125 -3.855469 2.523438 -4.613281 3.136719 -4.613281 C 3.742188 -4.613281 4.015625 -4.09375 4.042969 -3.539062 L 5.570312 -3.539062 L 5.570312 -5.960938 L 4.230469 -5.960938 L 4.035156 -5.484375 C 3.957031 -5.585938 3.574219 -6.0625 2.71875 -6.0625 C 1.601562 -6.0625 0.128906 -4.886719 0.128906 -2.925781 C 0.128906 -1.023438 1.332031 0.136719 3.136719 0.136719 C 4.253906 0.136719 5.140625 -0.425781 5.722656 -1.066406 Z M 4.726562 -2.15625 "/></g></g></g><g fill="#ffffff" fill-opacity="1"><g transform="translate(51.045897, 69.292192)"><g><path d="M 2.898438 -4.859375 L 2.898438 -5.960938 L 0.214844 -5.960938 L 0.214844 -4.859375 L 0.671875 -4.859375 L 0.671875 -1.109375 L 0.214844 -1.109375 L 0.214844 0 L 2.898438 0 L 2.898438 -1.109375 L 2.4375 -1.109375 L 2.4375 -2.019531 L 3.070312 -2.558594 L 3.992188 -1.109375 L 3.410156 -1.109375 L 3.410156 0 L 6.738281 0 L 6.738281 -1.109375 L 6.242188 -1.109375 L 4.519531 -3.796875 L 5.757812 -4.859375 L 6.25 -4.859375 L 6.25 -5.960938 L 3.410156 -5.960938 L 3.410156 -4.859375 L 4.023438 -4.859375 L 2.4375 -3.472656 L 2.4375 -4.859375 Z M 2.898438 -4.859375 "/></g></g></g><g fill="#ffffff" fill-opacity="1"><g transform="translate(58.294472, 69.292192)"><g><path d="M 0.214844 -5.960938 L 0.214844 -4.835938 L 0.75 -4.835938 L 0.75 -1.132812 L 0.214844 -1.132812 L 0.214844 0 L 5.355469 0 L 5.355469 -1.925781 L 3.878906 -1.925781 L 3.878906 -1.132812 L 2.515625 -1.132812 L 2.515625 -2.523438 L 4.136719 -2.523438 L 4.136719 -3.660156 L 2.515625 -3.660156 L 2.515625 -4.835938 L 3.878906 -4.835938 L 3.878906 -4.078125 L 5.355469 -4.078125 L 5.355469 -5.960938 Z M 0.214844 -5.960938 "/></g></g></g><g fill="#ffffff" fill-opacity="1"><g transform="translate(64.161567, 69.292192)"><g><path d="M 5.851562 -5.960938 L 0.128906 -5.960938 L 0.128906 -3.742188 L 1.382812 -3.742188 L 1.382812 -4.835938 L 2.113281 -4.835938 L 2.113281 -1.132812 L 1.414062 -1.132812 L 1.414062 0 L 4.589844 0 L 4.589844 -1.132812 L 3.878906 -1.132812 L 3.878906 -4.835938 L 4.597656 -4.835938 L 4.597656 -3.742188 L 5.851562 -3.742188 Z M 5.851562 -5.960938 "/></g></g></g><g fill="#ffffff" fill-opacity="1"><g transform="translate(70.437989, 69.292192)"><g/></g></g><g fill="#ffffff" fill-opacity="1"><g transform="translate(72.868433, 69.292192)"><g><path d="M 0.214844 -5.960938 L 0.214844 -4.835938 L 0.75 -4.835938 L 0.75 -1.132812 L 0.214844 -1.132812 L 0.214844 0 L 3.042969 0 L 3.042969 -1.132812 L 2.515625 -1.132812 L 2.515625 -4.835938 L 3.042969 -4.835938 L 3.042969 -5.960938 Z M 0.214844 -5.960938 "/></g></g></g><g fill="#ffffff" fill-opacity="1"><g transform="translate(76.424528, 69.292192)"><g><path d="M 6.746094 -4.859375 L 6.746094 -5.960938 L 4.179688 -5.960938 L 4.179688 -4.859375 L 4.757812 -4.859375 L 4.757812 -2.832031 L 2.667969 -5.960938 L 0.222656 -5.960938 L 0.222656 -4.859375 L 0.714844 -4.859375 L 0.714844 -1.101562 L 0.214844 -1.101562 L 0.214844 0 L 2.832031 0 L 2.832031 -1.101562 L 2.175781 -1.101562 L 2.175781 -3.25 L 4.347656 0 L 6.183594 0 L 6.183594 -4.859375 Z M 6.746094 -4.859375 "/></g></g></g><g fill="#ffffff" fill-opacity="1"><g transform="translate(83.681634, 69.292192)"><g/></g></g><g fill="#ffffff" fill-opacity="1"><g transform="translate(86.112077, 69.292192)"><g><path d="M 3.148438 -3.273438 C 3.113281 -3.417969 2.933594 -3.804688 2.882812 -3.964844 L 2.386719 -4.871094 L 2.832031 -4.871094 L 2.832031 -5.960938 L -0.0859375 -5.960938 L -0.0859375 -4.871094 L 0.332031 -4.871094 L 1.988281 -2.113281 L 1.988281 -1.109375 L 1.5 -1.109375 L 1.5 0 L 4.230469 0 L 4.230469 -1.109375 L 3.753906 -1.109375 L 3.753906 -2.097656 L 5.332031 -4.871094 L 5.789062 -4.871094 L 5.789062 -5.960938 L 3.496094 -5.960938 L 3.496094 -4.871094 L 3.964844 -4.871094 L 3.496094 -4.007812 C 3.402344 -3.804688 3.214844 -3.445312 3.179688 -3.273438 Z M 3.148438 -3.273438 "/></g></g></g><g fill="#ffffff" fill-opacity="1"><g transform="translate(92.115609, 69.292192)"><g><path d="M 3.179688 0.152344 C 5.109375 0.152344 6.183594 -1.023438 6.183594 -2.949219 C 6.183594 -4.871094 5.210938 -6.125 3.121094 -6.125 C 1.355469 -6.125 0.128906 -4.851562 0.128906 -3.011719 C 0.128906 -0.878906 1.398438 0.152344 3.179688 0.152344 Z M 3.179688 -1.183594 C 2.636719 -1.183594 2.234375 -1.894531 2.234375 -3.011719 C 2.234375 -4.066406 2.59375 -4.820312 3.113281 -4.808594 C 3.769531 -4.808594 4.050781 -3.984375 4.050781 -2.949219 C 4.050781 -1.894531 3.71875 -1.183594 3.179688 -1.183594 Z M 3.179688 -1.183594 "/></g></g></g><g fill="#ffffff" fill-opacity="1"><g transform="translate(98.724609, 69.292192)"><g><path d="M 0.128906 -5.960938 L 0.128906 -4.851562 L 0.605469 -4.851562 L 0.605469 -2.746094 C 0.605469 -0.808594 1.527344 0.09375 3.25 0.144531 C 4.851562 0.144531 5.695312 -0.765625 5.695312 -2.789062 L 5.695312 -4.859375 L 6.15625 -4.859375 L 6.15625 -5.960938 L 3.632812 -5.960938 L 3.632812 -4.835938 L 4.09375 -4.835938 L 4.09375 -3.027344 C 4.09375 -1.5625 3.753906 -1.355469 3.230469 -1.355469 C 2.6875 -1.355469 2.378906 -1.644531 2.378906 -3.019531 L 2.378906 -4.859375 L 2.839844 -4.859375 L 2.839844 -5.960938 Z M 0.128906 -5.960938 "/></g></g></g><g fill="#ffffff" fill-opacity="1"><g transform="translate(105.308027, 69.292192)"><g><path d="M 0.214844 -5.960938 L 0.214844 -4.84375 L 0.691406 -4.84375 L 0.691406 -1.125 L 0.214844 -1.125 L 0.214844 0 L 2.96875 0 L 2.96875 -1.125 L 2.449219 -1.125 L 2.449219 -2.449219 C 3.207031 -2.449219 3.300781 -2.261719 3.300781 -1.484375 C 3.300781 -0.484375 3.835938 0.101562 4.953125 0.101562 C 5.902344 0.101562 6.199219 -0.554688 6.199219 -1.261719 L 6.199219 -1.730469 L 5.628906 -1.730469 L 5.628906 -1.449219 C 5.628906 -1.277344 5.558594 -1.175781 5.433594 -1.175781 C 5.277344 -1.175781 5.226562 -1.390625 5.226562 -1.757812 C 5.226562 -2.371094 4.699219 -2.882812 4.109375 -2.96875 C 4.820312 -3.070312 5.347656 -3.539062 5.347656 -4.203125 C 5.347656 -5.175781 4.964844 -5.960938 2.984375 -5.960938 Z M 2.449219 -4.851562 L 2.875 -4.851562 C 3.367188 -4.851562 3.648438 -4.597656 3.648438 -4.09375 C 3.648438 -3.640625 3.324219 -3.402344 2.832031 -3.402344 L 2.449219 -3.402344 Z M 2.449219 -4.851562 "/></g></g></g><g fill="#ffffff" fill-opacity="1"><g transform="translate(111.891444, 69.292192)"><g/></g></g><g fill="#ffffff" fill-opacity="1"><g transform="translate(114.321888, 69.292192)"><g><path d="M 0.214844 -5.960938 L 0.214844 -4.84375 L 0.691406 -4.84375 L 0.691406 -1.125 L 0.214844 -1.125 L 0.214844 0 L 2.960938 0 L 2.960938 -1.125 L 2.4375 -1.125 L 2.4375 -2.449219 L 3.085938 -2.449219 C 4.308594 -2.449219 5.332031 -3.011719 5.332031 -4.136719 C 5.332031 -5.109375 4.953125 -5.960938 2.976562 -5.960938 Z M 2.4375 -4.851562 L 2.867188 -4.851562 C 3.359375 -4.851562 3.660156 -4.578125 3.660156 -4.078125 C 3.660156 -3.625 3.316406 -3.367188 2.824219 -3.367188 L 2.4375 -3.367188 Z M 2.4375 -4.851562 "/></g></g></g><g fill="#ffffff" fill-opacity="1"><g transform="translate(120.078123, 69.292192)"><g><path d="M 3.179688 0.152344 C 5.109375 0.152344 6.183594 -1.023438 6.183594 -2.949219 C 6.183594 -4.871094 5.210938 -6.125 3.121094 -6.125 C 1.355469 -6.125 0.128906 -4.851562 0.128906 -3.011719 C 0.128906 -0.878906 1.398438 0.152344 3.179688 0.152344 Z M 3.179688 -1.183594 C 2.636719 -1.183594 2.234375 -1.894531 2.234375 -3.011719 C 2.234375 -4.066406 2.59375 -4.820312 3.113281 -4.808594 C 3.769531 -4.808594 4.050781 -3.984375 4.050781 -2.949219 C 4.050781 -1.894531 3.71875 -1.183594 3.179688 -1.183594 Z M 3.179688 -1.183594 "/></g></g></g><g fill="#ffffff" fill-opacity="1"><g transform="translate(126.687123, 69.292192)"><g><path d="M 4.726562 -2.15625 C 4.648438 -2.074219 4.085938 -1.320312 3.367188 -1.320312 C 2.558594 -1.320312 2.125 -2.082031 2.125 -2.925781 C 2.125 -3.855469 2.523438 -4.613281 3.136719 -4.613281 C 3.742188 -4.613281 4.015625 -4.09375 4.042969 -3.539062 L 5.570312 -3.539062 L 5.570312 -5.960938 L 4.230469 -5.960938 L 4.035156 -5.484375 C 3.957031 -5.585938 3.574219 -6.0625 2.71875 -6.0625 C 1.601562 -6.0625 0.128906 -4.886719 0.128906 -2.925781 C 0.128906 -1.023438 1.332031 0.136719 3.136719 0.136719 C 4.253906 0.136719 5.140625 -0.425781 5.722656 -1.066406 Z M 4.726562 -2.15625 "/></g></g></g><g fill="#ffffff" fill-opacity="1"><g transform="translate(132.835631, 69.292192)"><g><path d="M 2.898438 -4.859375 L 2.898438 -5.960938 L 0.214844 -5.960938 L 0.214844 -4.859375 L 0.671875 -4.859375 L 0.671875 -1.109375 L 0.214844 -1.109375 L 0.214844 0 L 2.898438 0 L 2.898438 -1.109375 L 2.4375 -1.109375 L 2.4375 -2.019531 L 3.070312 -2.558594 L 3.992188 -1.109375 L 3.410156 -1.109375 L 3.410156 0 L 6.738281 0 L 6.738281 -1.109375 L 6.242188 -1.109375 L 4.519531 -3.796875 L 5.757812 -4.859375 L 6.25 -4.859375 L 6.25 -5.960938 L 3.410156 -5.960938 L 3.410156 -4.859375 L 4.023438 -4.859375 L 2.4375 -3.472656 L 2.4375 -4.859375 Z M 2.898438 -4.859375 "/></g></g></g><g fill="#ffffff" fill-opacity="1"><g transform="translate(140.084209, 69.292192)"><g><path d="M 0.214844 -5.960938 L 0.214844 -4.835938 L 0.75 -4.835938 L 0.75 -1.132812 L 0.214844 -1.132812 L 0.214844 0 L 5.355469 0 L 5.355469 -1.925781 L 3.878906 -1.925781 L 3.878906 -1.132812 L 2.515625 -1.132812 L 2.515625 -2.523438 L 4.136719 -2.523438 L 4.136719 -3.660156 L 2.515625 -3.660156 L 2.515625 -4.835938 L 3.878906 -4.835938 L 3.878906 -4.078125 L 5.355469 -4.078125 L 5.355469 -5.960938 Z M 0.214844 -5.960938 "/></g></g></g><g fill="#ffffff" fill-opacity="1"><g transform="translate(145.951301, 69.292192)"><g><path d="M 5.851562 -5.960938 L 0.128906 -5.960938 L 0.128906 -3.742188 L 1.382812 -3.742188 L 1.382812 -4.835938 L 2.113281 -4.835938 L 2.113281 -1.132812 L 1.414062 -1.132812 L 1.414062 0 L 4.589844 0 L 4.589844 -1.132812 L 3.878906 -1.132812 L 3.878906 -4.835938 L 4.597656 -4.835938 L 4.597656 -3.742188 L 5.851562 -3.742188 Z M 5.851562 -5.960938 "/></g></g></g></svg>