<svg xmlns="http://www.w3.org/2000/svg" xmlns:xlink="http://www.w3.org/1999/xlink" width="250" zoomAndPan="magnify" viewBox="0 0 187.5 187.499992" height="250" preserveAspectRatio="xMidYMid meet" version="1.0"><defs><g/><clipPath id="9688fc36d9"><path d="M 52.074219 60 L 96 60 L 96 91 L 52.074219 91 Z M 52.074219 60 " clip-rule="nonzero"/></clipPath><clipPath id="cb13e42a58"><path d="M 102 59.011719 L 131.363281 59.011719 L 131.363281 96.152344 L 102 96.152344 Z M 102 59.011719 " clip-rule="nonzero"/></clipPath><clipPath id="f880d2f1a2"><path d="M 75 57.253906 L 114 57.253906 L 114 95 L 75 95 Z M 75 57.253906 " clip-rule="nonzero"/></clipPath></defs><g clip-path="url(#9688fc36d9)"><path fill="#ffffff" d="M 66.785156 86.964844 L 66.785156 86.960938 L 73.117188 86.960938 C 73.875 86.960938 74.578125 86.222656 74.679688 85.316406 C 74.78125 84.410156 74.242188 83.667969 73.484375 83.667969 L 67.152344 83.667969 L 67.15625 83.664062 L 61.585938 83.664062 C 60.828125 83.664062 60.390625 82.929688 60.390625 82.019531 C 60.390625 81.105469 61.195312 80.371094 61.953125 80.371094 L 67.523438 80.371094 L 67.523438 80.367188 L 73.851562 80.367188 C 74.609375 80.367188 75.316406 79.625 75.414062 78.71875 C 75.515625 77.816406 74.980469 77.074219 74.21875 77.074219 L 67.890625 77.074219 L 67.890625 77.070312 L 53.28125 77.070312 C 52.523438 77.070312 52.085938 76.335938 52.085938 75.421875 C 52.085938 74.511719 52.890625 73.777344 53.648438 73.777344 L 68.257812 73.777344 L 68.257812 73.773438 L 74.589844 73.773438 C 75.347656 73.773438 76.050781 73.03125 76.152344 72.125 C 76.253906 71.21875 75.714844 70.480469 74.957031 70.480469 L 68.628906 70.480469 L 68.628906 70.472656 L 65.535156 70.472656 C 64.777344 70.472656 64.339844 69.738281 64.339844 68.828125 C 64.339844 67.917969 65.144531 67.179688 65.902344 67.179688 L 68.996094 67.179688 L 68.996094 67.175781 L 75.324219 67.175781 C 76.082031 67.175781 76.789062 66.4375 76.886719 65.53125 C 76.988281 64.625 76.453125 63.882812 75.691406 63.882812 L 69.363281 63.882812 L 69.363281 63.878906 L 59.226562 63.878906 C 58.46875 63.878906 58.03125 63.144531 58.03125 62.234375 C 58.03125 61.320312 58.835938 60.585938 59.597656 60.585938 L 76.0625 60.585938 C 76.085938 60.585938 76.105469 60.585938 76.128906 60.589844 L 95.328125 60.589844 L 88.394531 90.257812 L 72.816406 90.257812 C 72.792969 90.257812 72.769531 90.257812 72.746094 90.257812 L 55.234375 90.257812 C 54.476562 90.257812 54.039062 89.523438 54.039062 88.613281 C 54.039062 87.703125 54.84375 86.964844 55.601562 86.964844 L 66.785156 86.964844 " fill-opacity="1" fill-rule="evenodd"/></g><g clip-path="url(#cb13e42a58)"><path fill="#ffffff" d="M 131.421875 75.78125 L 114.652344 59.011719 L 107.625 66.042969 L 115.605469 74.023438 L 102.003906 87.625 L 110.792969 96.410156 L 131.421875 75.78125 " fill-opacity="1" fill-rule="evenodd"/></g><path fill="#000000" d="M 112.652344 91.277344 L 112.652344 92.261719 L 111.015625 93.894531 L 108.21875 91.097656 L 110.34375 88.972656 Z M 112.652344 86.664062 L 112.652344 87.648438 L 112.160156 87.15625 Z M 112.652344 63.304688 L 112.652344 64.003906 L 112.300781 63.652344 Z M 112.652344 92.261719 L 112.652344 91.277344 L 113.140625 91.769531 Z M 116.589844 87.335938 L 116.589844 88.320312 L 114.957031 89.953125 L 112.652344 87.648438 L 112.652344 86.664062 L 114.285156 85.03125 Z M 116.589844 63.695312 L 116.589844 64.960938 L 115.097656 66.453125 L 112.652344 64.003906 L 112.652344 63.304688 L 114.425781 61.527344 Z M 116.589844 82.722656 L 116.101562 83.214844 L 116.589844 83.707031 Z M 116.589844 64.960938 L 116.589844 63.695312 L 117.222656 64.328125 Z M 116.589844 88.320312 L 116.589844 87.335938 L 117.082031 87.828125 Z M 120.53125 78.785156 L 120.53125 79.765625 L 120.039062 79.273438 Z M 120.53125 83.398438 L 118.226562 81.089844 L 116.589844 82.722656 L 116.589844 83.707031 L 118.898438 86.011719 L 120.53125 84.378906 Z M 124.472656 79.457031 L 124.472656 80.4375 L 122.839844 82.070312 L 120.53125 79.765625 L 120.53125 78.785156 L 122.164062 77.148438 Z M 124.472656 74.84375 L 124.472656 75.824219 L 123.980469 75.332031 Z M 121.023438 83.886719 L 120.53125 83.398438 L 120.53125 84.378906 Z M 124.472656 75.824219 L 124.472656 74.84375 L 126.105469 73.207031 L 128.902344 76.007812 L 126.777344 78.132812 Z M 124.472656 80.4375 L 124.472656 79.457031 L 124.964844 79.949219 L 124.472656 80.4375 " fill-opacity="1" fill-rule="evenodd"/><g clip-path="url(#f880d2f1a2)"><path fill="#ffffff" d="M 113.261719 74.023438 L 96.492188 57.253906 L 75.863281 77.882812 L 92.632812 94.652344 L 113.261719 74.023438 " fill-opacity="1" fill-rule="evenodd"/></g><path fill="#000000" d="M 82.8125 77.839844 L 82.8125 78.824219 L 81.179688 80.457031 L 78.382812 77.660156 L 80.507812 75.535156 Z M 82.8125 73.226562 L 82.8125 74.210938 L 82.320312 73.71875 Z M 82.8125 78.824219 L 82.8125 77.839844 L 83.304688 78.332031 Z M 86.753906 73.898438 L 86.753906 74.882812 L 85.121094 76.515625 L 82.8125 74.210938 L 82.8125 73.226562 L 84.445312 71.59375 Z M 86.753906 69.285156 L 86.753906 70.269531 L 86.261719 69.777344 Z M 86.753906 74.882812 L 86.753906 73.898438 L 87.246094 74.390625 Z M 90.695312 88.707031 L 90.695312 89.972656 L 90.0625 89.339844 Z M 90.695312 69.960938 L 90.695312 70.941406 L 89.058594 72.574219 L 86.753906 70.269531 L 86.753906 69.285156 L 88.386719 67.652344 Z M 90.695312 65.347656 L 90.203125 65.835938 L 90.695312 66.328125 Z M 90.695312 70.941406 L 90.695312 69.960938 L 91.183594 70.449219 Z M 94.492188 89.519531 L 94.492188 90.503906 L 92.859375 92.136719 L 90.695312 89.972656 L 90.695312 88.707031 L 92.1875 87.214844 Z M 94.492188 84.90625 L 94.492188 85.890625 L 94 85.398438 Z M 94.492188 61.546875 L 94.492188 62.246094 L 94.144531 61.898438 Z M 94.492188 65.878906 L 92.328125 63.710938 L 90.695312 65.347656 L 90.695312 66.328125 L 93 68.636719 L 94.492188 67.144531 Z M 94.492188 90.503906 L 94.492188 89.519531 L 94.984375 90.011719 Z M 98.433594 85.578125 L 98.433594 86.5625 L 96.800781 88.195312 L 94.492188 85.890625 L 94.492188 84.90625 L 96.125 83.273438 Z M 98.433594 80.964844 L 98.433594 81.949219 L 97.941406 81.457031 Z M 98.433594 61.9375 L 98.433594 63.203125 L 96.941406 64.695312 L 94.492188 62.246094 L 94.492188 61.546875 L 96.269531 59.773438 Z M 95.125 66.511719 L 94.492188 65.878906 L 94.492188 67.144531 Z M 98.433594 63.203125 L 98.433594 61.9375 L 99.066406 62.570312 Z M 98.433594 86.5625 L 98.433594 85.578125 L 98.925781 86.070312 Z M 102.375 81.640625 L 102.375 82.621094 L 100.738281 84.253906 L 98.433594 81.949219 L 98.433594 80.964844 L 100.066406 79.332031 Z M 102.375 77.027344 L 102.375 78.007812 L 101.882812 77.515625 Z M 102.375 82.621094 L 102.375 81.640625 L 102.863281 82.128906 Z M 106.316406 77.699219 L 106.316406 78.679688 L 104.679688 80.316406 L 102.375 78.007812 L 102.375 77.027344 L 104.007812 75.390625 Z M 106.316406 73.085938 L 106.316406 74.066406 L 105.824219 73.578125 Z M 106.316406 74.066406 L 106.316406 73.085938 L 107.949219 71.453125 L 110.746094 74.25 L 108.621094 76.375 Z M 106.316406 78.679688 L 106.316406 77.699219 L 106.804688 78.191406 L 106.316406 78.679688 " fill-opacity="1" fill-rule="evenodd"/><g fill="#ffffff" fill-opacity="1"><g transform="translate(18.336602, 108.649647)"><g><path d="M 7.523438 -7.667969 L 0.164062 -7.667969 L 0.164062 -4.816406 L 1.777344 -4.816406 L 1.777344 -6.21875 L 2.71875 -6.21875 L 2.71875 -1.457031 L 1.820312 -1.457031 L 1.820312 0 L 5.902344 0 L 5.902344 -1.457031 L 4.992188 -1.457031 L 4.992188 -6.21875 L 5.914062 -6.21875 L 5.914062 -4.816406 L 7.523438 -4.816406 Z M 7.523438 -7.667969 "/></g></g></g><g fill="#ffffff" fill-opacity="1"><g transform="translate(26.4097, 108.649647)"><g><path d="M 0.273438 -7.667969 L 0.273438 -6.21875 L 0.964844 -6.21875 L 0.964844 -1.457031 L 0.273438 -1.457031 L 0.273438 0 L 3.917969 0 L 3.917969 -1.457031 L 3.234375 -1.457031 L 3.234375 -6.21875 L 3.917969 -6.21875 L 3.917969 -7.667969 Z M 0.273438 -7.667969 "/></g></g></g><g fill="#ffffff" fill-opacity="1"><g transform="translate(30.983753, 108.649647)"><g><path d="M 6.078125 -2.773438 C 5.976562 -2.664062 5.253906 -1.699219 4.332031 -1.699219 C 3.289062 -1.699219 2.730469 -2.675781 2.730469 -3.761719 C 2.730469 -4.957031 3.246094 -5.933594 4.035156 -5.933594 C 4.816406 -5.933594 5.167969 -5.265625 5.199219 -4.550781 L 7.164062 -4.550781 L 7.164062 -7.667969 L 5.441406 -7.667969 L 5.1875 -7.054688 C 5.089844 -7.183594 4.597656 -7.800781 3.5 -7.800781 C 2.0625 -7.800781 0.164062 -6.285156 0.164062 -3.761719 C 0.164062 -1.316406 1.710938 0.175781 4.035156 0.175781 C 5.472656 0.175781 6.613281 -0.546875 7.359375 -1.371094 Z M 6.078125 -2.773438 "/></g></g></g><g fill="#ffffff" fill-opacity="1"><g transform="translate(38.892317, 108.649647)"><g><path d="M 3.730469 -6.253906 L 3.730469 -7.667969 L 0.273438 -7.667969 L 0.273438 -6.253906 L 0.867188 -6.253906 L 0.867188 -1.425781 L 0.273438 -1.425781 L 0.273438 0 L 3.730469 0 L 3.730469 -1.425781 L 3.136719 -1.425781 L 3.136719 -2.601562 L 3.949219 -3.289062 L 5.132812 -1.425781 L 4.386719 -1.425781 L 4.386719 0 L 8.664062 0 L 8.664062 -1.425781 L 8.03125 -1.425781 L 5.8125 -4.882812 L 7.40625 -6.253906 L 8.039062 -6.253906 L 8.039062 -7.667969 L 4.386719 -7.667969 L 4.386719 -6.253906 L 5.175781 -6.253906 L 3.136719 -4.464844 L 3.136719 -6.253906 Z M 3.730469 -6.253906 "/></g></g></g><g fill="#ffffff" fill-opacity="1"><g transform="translate(48.215855, 108.649647)"><g><path d="M 0.273438 -7.667969 L 0.273438 -6.21875 L 0.964844 -6.21875 L 0.964844 -1.457031 L 0.273438 -1.457031 L 0.273438 0 L 6.890625 0 L 6.890625 -2.480469 L 4.992188 -2.480469 L 4.992188 -1.457031 L 3.234375 -1.457031 L 3.234375 -3.246094 L 5.320312 -3.246094 L 5.320312 -4.707031 L 3.234375 -4.707031 L 3.234375 -6.21875 L 4.992188 -6.21875 L 4.992188 -5.242188 L 6.890625 -5.242188 L 6.890625 -7.667969 Z M 0.273438 -7.667969 "/></g></g></g><g fill="#ffffff" fill-opacity="1"><g transform="translate(55.762452, 108.649647)"><g><path d="M 7.523438 -7.667969 L 0.164062 -7.667969 L 0.164062 -4.816406 L 1.777344 -4.816406 L 1.777344 -6.21875 L 2.71875 -6.21875 L 2.71875 -1.457031 L 1.820312 -1.457031 L 1.820312 0 L 5.902344 0 L 5.902344 -1.457031 L 4.992188 -1.457031 L 4.992188 -6.21875 L 5.914062 -6.21875 L 5.914062 -4.816406 L 7.523438 -4.816406 Z M 7.523438 -7.667969 "/></g></g></g><g fill="#ffffff" fill-opacity="1"><g transform="translate(63.835549, 108.649647)"><g/></g></g><g fill="#ffffff" fill-opacity="1"><g transform="translate(66.961726, 108.649647)"><g><path d="M 0.273438 -7.667969 L 0.273438 -6.21875 L 0.964844 -6.21875 L 0.964844 -1.457031 L 0.273438 -1.457031 L 0.273438 0 L 3.917969 0 L 3.917969 -1.457031 L 3.234375 -1.457031 L 3.234375 -6.21875 L 3.917969 -6.21875 L 3.917969 -7.667969 Z M 0.273438 -7.667969 "/></g></g></g><g fill="#ffffff" fill-opacity="1"><g transform="translate(71.535782, 108.649647)"><g><path d="M 8.675781 -6.253906 L 8.675781 -7.667969 L 5.375 -7.667969 L 5.375 -6.253906 L 6.121094 -6.253906 L 6.121094 -3.640625 L 3.433594 -7.667969 L 0.285156 -7.667969 L 0.285156 -6.253906 L 0.921875 -6.253906 L 0.921875 -1.414062 L 0.273438 -1.414062 L 0.273438 0 L 3.640625 0 L 3.640625 -1.414062 L 2.796875 -1.414062 L 2.796875 -4.179688 L 5.59375 0 L 7.953125 0 L 7.953125 -6.253906 Z M 8.675781 -6.253906 "/></g></g></g><g fill="#ffffff" fill-opacity="1"><g transform="translate(80.870291, 108.649647)"><g/></g></g><g fill="#ffffff" fill-opacity="1"><g transform="translate(83.996468, 108.649647)"><g><path d="M 4.046875 -4.210938 C 4.003906 -4.398438 3.773438 -4.890625 3.707031 -5.101562 L 3.070312 -6.261719 L 3.640625 -6.261719 L 3.640625 -7.667969 L -0.109375 -7.667969 L -0.109375 -6.261719 L 0.429688 -6.261719 L 2.554688 -2.71875 L 2.554688 -1.425781 L 1.929688 -1.425781 L 1.929688 0 L 5.441406 0 L 5.441406 -1.425781 L 4.828125 -1.425781 L 4.828125 -2.699219 L 6.855469 -6.261719 L 7.449219 -6.261719 L 7.449219 -7.667969 L 4.496094 -7.667969 L 4.496094 -6.261719 L 5.101562 -6.261719 L 4.496094 -5.15625 C 4.375 -4.890625 4.136719 -4.433594 4.089844 -4.210938 Z M 4.046875 -4.210938 "/></g></g></g><g fill="#ffffff" fill-opacity="1"><g transform="translate(91.718559, 108.649647)"><g><path d="M 4.089844 0.199219 C 6.570312 0.199219 7.953125 -1.316406 7.953125 -3.796875 C 7.953125 -6.261719 6.703125 -7.875 4.015625 -7.875 C 1.746094 -7.875 0.164062 -6.242188 0.164062 -3.871094 C 0.164062 -1.128906 1.800781 0.199219 4.089844 0.199219 Z M 4.089844 -1.523438 C 3.390625 -1.523438 2.875 -2.433594 2.875 -3.871094 C 2.875 -5.234375 3.335938 -6.199219 4.003906 -6.1875 C 4.847656 -6.1875 5.210938 -5.121094 5.210938 -3.796875 C 5.210938 -2.433594 4.78125 -1.523438 4.089844 -1.523438 Z M 4.089844 -1.523438 "/></g></g></g><g fill="#ffffff" fill-opacity="1"><g transform="translate(100.219438, 108.649647)"><g><path d="M 0.164062 -7.667969 L 0.164062 -6.242188 L 0.777344 -6.242188 L 0.777344 -3.53125 C 0.777344 -1.042969 1.964844 0.121094 4.179688 0.1875 C 6.242188 0.1875 7.328125 -0.988281 7.328125 -3.585938 L 7.328125 -6.253906 L 7.921875 -6.253906 L 7.921875 -7.667969 L 4.671875 -7.667969 L 4.671875 -6.21875 L 5.265625 -6.21875 L 5.265625 -3.894531 C 5.265625 -2.007812 4.828125 -1.746094 4.15625 -1.746094 C 3.457031 -1.746094 3.058594 -2.117188 3.058594 -3.882812 L 3.058594 -6.253906 L 3.652344 -6.253906 L 3.652344 -7.667969 Z M 0.164062 -7.667969 "/></g></g></g><g fill="#ffffff" fill-opacity="1"><g transform="translate(108.68741, 108.649647)"><g><path d="M 0.273438 -7.667969 L 0.273438 -6.230469 L 0.886719 -6.230469 L 0.886719 -1.449219 L 0.273438 -1.449219 L 0.273438 0 L 3.816406 0 L 3.816406 -1.449219 L 3.148438 -1.449219 L 3.148438 -3.148438 C 4.125 -3.148438 4.246094 -2.90625 4.246094 -1.910156 C 4.246094 -0.625 4.9375 0.132812 6.375 0.132812 C 7.589844 0.132812 7.976562 -0.714844 7.976562 -1.625 L 7.976562 -2.226562 L 7.238281 -2.226562 L 7.238281 -1.863281 C 7.238281 -1.644531 7.152344 -1.515625 6.988281 -1.515625 C 6.789062 -1.515625 6.722656 -1.789062 6.722656 -2.257812 C 6.722656 -3.050781 6.042969 -3.707031 5.289062 -3.816406 C 6.199219 -3.949219 6.878906 -4.550781 6.878906 -5.40625 C 6.878906 -6.660156 6.382812 -7.667969 3.839844 -7.667969 Z M 3.148438 -6.242188 L 3.695312 -6.242188 C 4.332031 -6.242188 4.695312 -5.914062 4.695312 -5.265625 C 4.695312 -4.683594 4.277344 -4.375 3.640625 -4.375 L 3.148438 -4.375 Z M 3.148438 -6.242188 "/></g></g></g><g fill="#ffffff" fill-opacity="1"><g transform="translate(117.155383, 108.649647)"><g/></g></g><g fill="#ffffff" fill-opacity="1"><g transform="translate(120.28156, 108.649647)"><g><path d="M 0.273438 -7.667969 L 0.273438 -6.230469 L 0.886719 -6.230469 L 0.886719 -1.449219 L 0.273438 -1.449219 L 0.273438 0 L 3.804688 0 L 3.804688 -1.449219 L 3.136719 -1.449219 L 3.136719 -3.148438 L 3.972656 -3.148438 C 5.539062 -3.148438 6.855469 -3.871094 6.855469 -5.320312 C 6.855469 -6.570312 6.375 -7.667969 3.828125 -7.667969 Z M 3.136719 -6.242188 L 3.6875 -6.242188 C 4.320312 -6.242188 4.707031 -5.890625 4.707031 -5.242188 C 4.707031 -4.660156 4.265625 -4.332031 3.632812 -4.332031 L 3.136719 -4.332031 Z M 3.136719 -6.242188 "/></g></g></g><g fill="#ffffff" fill-opacity="1"><g transform="translate(127.685563, 108.649647)"><g><path d="M 4.089844 0.199219 C 6.570312 0.199219 7.953125 -1.316406 7.953125 -3.796875 C 7.953125 -6.261719 6.703125 -7.875 4.015625 -7.875 C 1.746094 -7.875 0.164062 -6.242188 0.164062 -3.871094 C 0.164062 -1.128906 1.800781 0.199219 4.089844 0.199219 Z M 4.089844 -1.523438 C 3.390625 -1.523438 2.875 -2.433594 2.875 -3.871094 C 2.875 -5.234375 3.335938 -6.199219 4.003906 -6.1875 C 4.847656 -6.1875 5.210938 -5.121094 5.210938 -3.796875 C 5.210938 -2.433594 4.78125 -1.523438 4.089844 -1.523438 Z M 4.089844 -1.523438 "/></g></g></g><g fill="#ffffff" fill-opacity="1"><g transform="translate(136.186442, 108.649647)"><g><path d="M 6.078125 -2.773438 C 5.976562 -2.664062 5.253906 -1.699219 4.332031 -1.699219 C 3.289062 -1.699219 2.730469 -2.675781 2.730469 -3.761719 C 2.730469 -4.957031 3.246094 -5.933594 4.035156 -5.933594 C 4.816406 -5.933594 5.167969 -5.265625 5.199219 -4.550781 L 7.164062 -4.550781 L 7.164062 -7.667969 L 5.441406 -7.667969 L 5.1875 -7.054688 C 5.089844 -7.183594 4.597656 -7.800781 3.5 -7.800781 C 2.0625 -7.800781 0.164062 -6.285156 0.164062 -3.761719 C 0.164062 -1.316406 1.710938 0.175781 4.035156 0.175781 C 5.472656 0.175781 6.613281 -0.546875 7.359375 -1.371094 Z M 6.078125 -2.773438 "/></g></g></g><g fill="#ffffff" fill-opacity="1"><g transform="translate(144.095009, 108.649647)"><g><path d="M 3.730469 -6.253906 L 3.730469 -7.667969 L 0.273438 -7.667969 L 0.273438 -6.253906 L 0.867188 -6.253906 L 0.867188 -1.425781 L 0.273438 -1.425781 L 0.273438 0 L 3.730469 0 L 3.730469 -1.425781 L 3.136719 -1.425781 L 3.136719 -2.601562 L 3.949219 -3.289062 L 5.132812 -1.425781 L 4.386719 -1.425781 L 4.386719 0 L 8.664062 0 L 8.664062 -1.425781 L 8.03125 -1.425781 L 5.8125 -4.882812 L 7.40625 -6.253906 L 8.039062 -6.253906 L 8.039062 -7.667969 L 4.386719 -7.667969 L 4.386719 -6.253906 L 5.175781 -6.253906 L 3.136719 -4.464844 L 3.136719 -6.253906 Z M 3.730469 -6.253906 "/></g></g></g><g fill="#ffffff" fill-opacity="1"><g transform="translate(153.418549, 108.649647)"><g><path d="M 0.273438 -7.667969 L 0.273438 -6.21875 L 0.964844 -6.21875 L 0.964844 -1.457031 L 0.273438 -1.457031 L 0.273438 0 L 6.890625 0 L 6.890625 -2.480469 L 4.992188 -2.480469 L 4.992188 -1.457031 L 3.234375 -1.457031 L 3.234375 -3.246094 L 5.320312 -3.246094 L 5.320312 -4.707031 L 3.234375 -4.707031 L 3.234375 -6.21875 L 4.992188 -6.21875 L 4.992188 -5.242188 L 6.890625 -5.242188 L 6.890625 -7.667969 Z M 0.273438 -7.667969 "/></g></g></g><g fill="#ffffff" fill-opacity="1"><g transform="translate(160.965143, 108.649647)"><g><path d="M 7.523438 -7.667969 L 0.164062 -7.667969 L 0.164062 -4.816406 L 1.777344 -4.816406 L 1.777344 -6.21875 L 2.71875 -6.21875 L 2.71875 -1.457031 L 1.820312 -1.457031 L 1.820312 0 L 5.902344 0 L 5.902344 -1.457031 L 4.992188 -1.457031 L 4.992188 -6.21875 L 5.914062 -6.21875 L 5.914062 -4.816406 L 7.523438 -4.816406 Z M 7.523438 -7.667969 "/></g></g></g></svg>